<?xml version="1.0" standalone="no"?>
<!DOCTYPE svg PUBLIC "-//W3C//DTD SVG 20010904//EN"
 "http://www.w3.org/TR/2001/REC-SVG-20010904/DTD/svg10.dtd">
<svg version="1.0" xmlns="http://www.w3.org/2000/svg"
 width="176.000000pt" height="36.000000pt" viewBox="0 0 176.000000 36.000000"
 preserveAspectRatio="xMidYMid meet">
<metadata>
Created by potrace 1.16, written by Peter Selinger 2001-2019
</metadata>
<g transform="translate(0.000000,36.000000) scale(0.100000,-0.100000)"
fill="#000000" stroke="none">
<path d="M153 292 c-40 -2 -63 -7 -64 -15 0 -7 -2 -23 -4 -37 -1 -14 -4 -61
-6 -105 l-4 -80 32 -3 c41 -4 51 15 53 98 2 126 0 121 59 124 29 2 57 8 63 14
8 8 0 10 -28 9 -21 -1 -67 -3 -101 -5z"/>
<path d="M724 286 c-7 -17 -32 -229 -28 -234 1 -2 21 -1 43 3 40 7 41 8 43 48
2 68 5 99 13 150 l8 47 -37 0 c-23 0 -39 -5 -42 -14z"/>
<path d="M416 275 c-8 -8 -18 -25 -22 -38 -4 -12 -17 -35 -29 -52 -20 -27 -75
-128 -75 -138 0 -2 10 -2 23 0 20 4 67 71 67 95 0 11 63 98 70 98 7 0 43 -77
44 -95 1 -5 -10 -9 -23 -7 -30 5 -71 -6 -71 -18 0 -5 21 -7 49 -3 47 5 50 4
65 -26 14 -27 22 -31 57 -31 39 0 41 1 35 25 -10 41 -24 71 -38 86 -7 8 -19
32 -27 54 -7 22 -18 46 -23 53 -14 17 -83 15 -102 -3z"/>
</g>
</svg>
